{"title":"Jack Reacher 2012 BRRiP XViD OPTiMUM","uid":8382461,"size":1484599649,"categoryP":"video","categoryS":"movies","magnet":"?xt=urn:btih:409d7e4fd4847df505a1d530d130590eb1f603ec&amp;dn=Jack+Reacher+2012+BRRiP+XViD+OPTiMUM&amp;tr=udp%3A%2F%2Ftracker.openbittorrent.com%3A80&amp;tr=udp%3A%2F%2Fopen.demonii.com%3A1337&amp;tr=udp%3A%2F%2Ftracker.coppersurfer.tk%3A6969&amp;tr=udp%3A%2F%2Fexodus.desync.com%3A6969","seeders":2,"leechers":0,"uploader":"xxxlavalxxx","files":-1,"time":1366210966,"description":"\n &lt;a href=&quot;\nhttp://www.imdb.com/title/tt0790724/&quot; rel=&quot;nofollow&quot; target=&quot;_NEW&quot;&gt;\nhttp://www.imdb.com/title/tt0790724/&lt;/a&gt;\n\nPlot:A homicide investigator digs deeper into a case involving a trained military sniper who shot five random victims.\n\nDirector: \nChristopher McQuarrie\n\n Writers: \nChristopher McQuarrie (screenplay), Lee Child (book)\n \nStars:\n Tom Cruise, Rosamund Pike and Richard Jenkins\n\nGenres:\n Action | Crime | Thriller \n \n\n\n\nFormat                                   : AVI\n Format/Info                              : Audio Video Interleave\n File size                                : 1.37 GiB\n Duration                                 : 2h 10mn\n Overall bit rate                         : 1 500 Kbps\n Writing application                      : VirtualDubMod 1.5.10.2 (build 2540/release)\n Writing library                          : VirtualDubMod build 2540/release\n\n Video\n ID                                       : 0\n Format                                   : MPEG-4 Visual\n Format profile                           : Advanced Simple@L5\n Format settings, BVOP                    : 2\n Format settings, QPel                    : No\n Format settings, GMC                     : No warppoints\n Format settings, Matrix                  : Default (H.263)\n Muxing mode                              : Packed bitstream\n Codec ID                                 : XVID\n Codec ID/Hint                            : XviD\n Duration                                 : 2h 10mn\n Bit rate                                 : 1 106 Kbps\n Width                                    : 720 pixels\n Height                                   : 304 pixels\n Display aspect ratio                     : 2.35:1\n Frame rate                               : 23.976 fps\n Color space                              : YUV\n Chroma subsampling                       : 4:2:0\n Bit depth                                : 8 bits\n Scan type                                : Progressive\n Compression mode                         : Lossy\n Bits/(Pixel*Frame)                       : 0.211\n Stream size                              : 1.01 GiB (74%)\n Writing library                          : XviD 64\n\n Audio\n ID                                       : 1\n Format                                   : AC-3\n Format/Info                              : Audio Coding 3\n Mode extension                           : CM (complete main)\n Format settings, Endianness              : Big\n Codec ID                                 : 2000\n Duration                                 : 2h 10mn\n Bit rate mode                            : Constant\n Bit rate                                 : 384 Kbps\n Channel(s)                               : 6 channels\n Channel positions                        : Front: L C R, Side: L R, LFE\n Sampling rate                            : 48.0 KHz\n Bit depth                                : 16 bits\n Compression mode                         : Lossy\n Stream size                              : 358 MiB (26%)\n Alignment                                : Split accross interleaves\n Interleave, duration                     : 42 ms (1.00 video frame)\n Interleave, preload duration             : 500 ms\n\n\n Source Used \n\n Jack Reacher 2012 720p BluRay X264-AMIABLE /Thanks\n\n\n &lt;a href=&quot;\nhttp://www.shotpix.com/images/59308681022008283245.png&quot; rel=&quot;nofollow&quot; target=&quot;_NEW&quot;&gt;\nhttp://www.shotpix.com/images/59308681022008283245.png&lt;/a&gt; &lt;a href=&quot;\nhttp://www.shotpix.com/images/38801108418281145018.png&quot; rel=&quot;nofollow&quot; target=&quot;_NEW&quot;&gt;\nhttp://www.shotpix.com/images/38801108418281145018.png&lt;/a&gt; &lt;a href=&quot;\nhttp://www.shotpix.com/images/34192071353762628677.png&quot; rel=&quot;nofollow&quot; target=&quot;_NEW&quot;&gt;\nhttp://www.shotpix.com/images/34192071353762628677.png&lt;/a&gt;","torrent":{"xt":"urn:btih:409d7e4fd4847df505a1d530d130590eb1f603ec","amp;dn":"Jack+Reacher+2012+BRRiP+XViD+OPTiMUM","amp;tr":["udp%3A%2F%2Ftracker.openbittorrent.com%3A80","udp%3A%2F%2Fopen.demonii.com%3A1337","udp%3A%2F%2Ftracker.coppersurfer.tk%3A6969","udp%3A%2F%2Fexodus.desync.com%3A6969"],"infoHash":"409d7e4fd4847df505a1d530d130590eb1f603ec","infoHashBuffer":{"type":"Buffer","data":[64,157,126,79,212,132,125,245,5,161,213,48,209,48,89,14,177,246,3,236]},"announce":[],"urlList":[]}}